<svg width="38" height="48" viewBox="0 0 38 48" fill="none" xmlns="http://www.w3.org/2000/svg">
<path d="M16.5684 9.60107C16.207 10.1187 15.7017 10.5068 15.0522 10.7656C14.4077 11.0195 13.6558 11.1465 12.7964 11.1465C11.9272 11.1465 11.1558 10.9438 10.4819 10.5386C9.80811 10.1284 9.28564 9.54736 8.91455 8.79541C8.54834 8.04346 8.36035 7.17188 8.35059 6.18066V5.25049C8.35059 3.64404 8.72412 2.39893 9.47119 1.51514C10.2231 0.631348 11.2778 0.189453 12.6353 0.189453C13.7485 0.189453 14.6445 0.475098 15.3232 1.04639C16.002 1.61279 16.417 2.41846 16.5684 3.46338H15.1621C14.8984 2.05225 14.0586 1.34668 12.6426 1.34668C11.7002 1.34668 10.9849 1.67871 10.4966 2.34277C10.0132 3.00195 9.76904 3.95898 9.76416 5.21387V6.08545C9.76416 7.28174 10.0376 8.23389 10.5845 8.94189C11.1313 9.64502 11.8711 9.99658 12.8037 9.99658C13.3311 9.99658 13.7925 9.93799 14.188 9.8208C14.5835 9.70361 14.9106 9.50586 15.1694 9.22754V6.83252H12.7012V5.68994H16.5684V9.60107ZM21.9956 11.1465C20.9214 11.1465 20.0474 10.7949 19.3735 10.0918C18.6997 9.38379 18.3628 8.43896 18.3628 7.25732V7.0083C18.3628 6.22217 18.5117 5.52148 18.8096 4.90625C19.1123 4.28613 19.5322 3.80273 20.0693 3.45605C20.6113 3.10449 21.1973 2.92871 21.8271 2.92871C22.8574 2.92871 23.6582 3.26807 24.2295 3.94678C24.8008 4.62549 25.0864 5.59717 25.0864 6.86182V7.42578H19.7178C19.7373 8.20703 19.9644 8.83936 20.3989 9.32275C20.8384 9.80127 21.395 10.0405 22.0688 10.0405C22.5474 10.0405 22.9526 9.94287 23.2847 9.74756C23.6167 9.55225 23.9072 9.29346 24.1562 8.97119L24.9839 9.61572C24.3198 10.6362 23.3237 11.1465 21.9956 11.1465ZM21.8271 4.04199C21.2803 4.04199 20.8213 4.24219 20.4502 4.64258C20.0791 5.03809 19.8496 5.59473 19.7617 6.3125H23.7314V6.20996C23.6924 5.52148 23.5068 4.98926 23.1748 4.61328C22.8428 4.23242 22.3936 4.04199 21.8271 4.04199ZM28.4995 1.15625V3.0752H29.979V4.12256H28.4995V9.03711C28.4995 9.35449 28.5654 9.59375 28.6973 9.75488C28.8291 9.91113 29.0537 9.98926 29.3711 9.98926C29.5273 9.98926 29.7422 9.95996 30.0156 9.90137V11C29.6592 11.0977 29.3125 11.1465 28.9756 11.1465C28.3701 11.1465 27.9136 10.9634 27.606 10.5972C27.2983 10.231 27.1445 9.71094 27.1445 9.03711V4.12256H25.7017V3.0752H27.1445V1.15625H28.4995ZM3.84814 27.6304L6.08252 21.1797H7.21045L4.31006 29H3.39697L0.501953 21.1797H1.62451L3.84814 27.6304ZM7.59717 26.0405C7.59717 25.4712 7.70817 24.9591 7.93018 24.5044C8.15576 24.0496 8.46729 23.6987 8.86475 23.4517C9.26579 23.2046 9.72233 23.0811 10.2344 23.0811C11.0257 23.0811 11.6649 23.355 12.1519 23.9028C12.6424 24.4507 12.8877 25.1794 12.8877 26.0889V26.1587C12.8877 26.7244 12.7785 27.2329 12.5601 27.6841C12.3452 28.1317 12.0355 28.4808 11.6309 28.7314C11.2298 28.9821 10.7679 29.1074 10.2451 29.1074C9.45736 29.1074 8.8182 28.8335 8.32764 28.2856C7.84066 27.7378 7.59717 27.0127 7.59717 26.1104V26.0405ZM8.59619 26.1587C8.59619 26.8032 8.74479 27.3206 9.04199 27.7109C9.34277 28.1012 9.74382 28.2964 10.2451 28.2964C10.75 28.2964 11.151 28.0994 11.4482 27.7056C11.7454 27.3081 11.894 26.7531 11.894 26.0405C11.894 25.4032 11.7419 24.8875 11.4375 24.4937C11.1367 24.0962 10.7357 23.8975 10.2344 23.8975C9.74382 23.8975 9.34814 24.0926 9.04736 24.4829C8.74658 24.8732 8.59619 25.4318 8.59619 26.1587ZM15.2134 29H14.2197V20.75H15.2134V29ZM18.1567 21.7812V23.1885H19.2417V23.9565H18.1567V27.5605C18.1567 27.7933 18.2051 27.9688 18.3018 28.0869C18.3984 28.2015 18.5632 28.2588 18.7959 28.2588C18.9105 28.2588 19.068 28.2373 19.2686 28.1943V29C19.0072 29.0716 18.7529 29.1074 18.5059 29.1074C18.0618 29.1074 17.7271 28.9731 17.5015 28.7046C17.2759 28.436 17.1631 28.0547 17.1631 27.5605V23.9565H16.105V23.1885H17.1631V21.7812H18.1567ZM23.9951 29C23.9378 28.8854 23.8913 28.6813 23.8555 28.3877C23.3936 28.8675 22.8421 29.1074 22.2012 29.1074C21.6283 29.1074 21.1574 28.9463 20.7886 28.624C20.4233 28.2982 20.2407 27.8864 20.2407 27.3887C20.2407 26.7835 20.4699 26.3145 20.9282 25.9814C21.3901 25.6449 22.0382 25.4766 22.8726 25.4766H23.8394V25.02C23.8394 24.6727 23.7355 24.397 23.5278 24.1929C23.3201 23.9852 23.014 23.8813 22.6094 23.8813C22.2549 23.8813 21.9577 23.9709 21.7178 24.1499C21.4779 24.3289 21.3579 24.5456 21.3579 24.7998H20.3589C20.3589 24.5098 20.4609 24.2305 20.665 23.9619C20.8727 23.6898 21.152 23.4749 21.5029 23.3174C21.8574 23.1598 22.2459 23.0811 22.6685 23.0811C23.3381 23.0811 23.8626 23.2493 24.2422 23.5859C24.6217 23.9189 24.8187 24.3791 24.833 24.9663V27.6411C24.833 28.1746 24.901 28.599 25.0371 28.9141V29H23.9951ZM22.3462 28.2427C22.6577 28.2427 22.9531 28.1621 23.2324 28.001C23.5117 27.8398 23.714 27.6304 23.8394 27.3726V26.1802H23.0605C21.8431 26.1802 21.2344 26.5365 21.2344 27.249C21.2344 27.5605 21.3382 27.804 21.5459 27.9795C21.7536 28.1549 22.0203 28.2427 22.3462 28.2427ZM26.1543 26.0459C26.1543 25.14 26.3638 24.4202 26.7827 23.8867C27.2017 23.3496 27.7567 23.0811 28.4478 23.0811C29.1567 23.0811 29.71 23.3317 30.1074 23.833L30.1558 23.1885H31.0635V28.8604C31.0635 29.6123 30.8397 30.2049 30.3921 30.6382C29.9481 31.0715 29.3501 31.2881 28.5981 31.2881C28.1792 31.2881 27.7692 31.1986 27.3682 31.0195C26.9671 30.8405 26.661 30.5952 26.4497 30.2837L26.9653 29.6875C27.3914 30.2139 27.9124 30.4771 28.5283 30.4771C29.0117 30.4771 29.3877 30.341 29.6562 30.0688C29.9284 29.7967 30.0645 29.4136 30.0645 28.9194V28.4199C29.667 28.8783 29.1245 29.1074 28.437 29.1074C27.7567 29.1074 27.2052 28.8335 26.7827 28.2856C26.3638 27.7378 26.1543 26.9912 26.1543 26.0459ZM27.1533 26.1587C27.1533 26.814 27.2876 27.3296 27.5562 27.7056C27.8247 28.078 28.2007 28.2642 28.6841 28.2642C29.3107 28.2642 29.7708 27.9795 30.0645 27.4102V24.7568C29.7601 24.2018 29.3035 23.9243 28.6948 23.9243C28.2114 23.9243 27.8337 24.1123 27.5615 24.4883C27.2894 24.8643 27.1533 25.4211 27.1533 26.1587ZM34.979 29.1074C34.1912 29.1074 33.5503 28.8496 33.0562 28.334C32.562 27.8148 32.3149 27.1219 32.3149 26.2554V26.0728C32.3149 25.4963 32.4242 24.9824 32.6426 24.5312C32.8646 24.0765 33.1725 23.722 33.5664 23.4678C33.9639 23.21 34.3936 23.0811 34.8555 23.0811C35.611 23.0811 36.1982 23.3299 36.6172 23.8276C37.0361 24.3254 37.2456 25.0379 37.2456 25.9653V26.3789H33.3086C33.3229 26.9518 33.4894 27.4155 33.8081 27.77C34.1304 28.1209 34.5386 28.2964 35.0327 28.2964C35.3836 28.2964 35.6808 28.2248 35.9243 28.0815C36.1678 27.9383 36.3809 27.7485 36.5635 27.5122L37.1704 27.9849C36.6834 28.7332 35.953 29.1074 34.979 29.1074ZM34.8555 23.8975C34.4544 23.8975 34.1178 24.0443 33.8457 24.3379C33.5736 24.6279 33.4053 25.0361 33.3408 25.5625H36.252V25.4873C36.2233 24.9824 36.0872 24.5921 35.8438 24.3164C35.6003 24.0371 35.2708 23.8975 34.8555 23.8975ZM17.645 41.0088H18.6631C19.3027 40.999 19.8057 40.8306 20.1719 40.5034C20.5381 40.1763 20.7212 39.7344 20.7212 39.1777C20.7212 37.9277 20.0986 37.3027 18.8535 37.3027C18.2676 37.3027 17.7988 37.4712 17.4473 37.8081C17.1006 38.1401 16.9272 38.582 16.9272 39.1338H15.5723C15.5723 38.2891 15.8799 37.5884 16.4951 37.0317C17.1152 36.4702 17.9014 36.1895 18.8535 36.1895C19.8594 36.1895 20.6479 36.4556 21.2192 36.9878C21.7905 37.52 22.0762 38.2598 22.0762 39.207C22.0762 39.6709 21.9248 40.1201 21.6221 40.5547C21.3242 40.9893 20.9165 41.314 20.3989 41.5288C20.9849 41.7144 21.4365 42.022 21.7539 42.4517C22.0762 42.8813 22.2373 43.4062 22.2373 44.0264C22.2373 44.9834 21.9248 45.7427 21.2998 46.3042C20.6748 46.8657 19.8618 47.1465 18.8608 47.1465C17.8599 47.1465 17.0444 46.8755 16.4146 46.3335C15.7896 45.7915 15.4771 45.0762 15.4771 44.1875H16.8394C16.8394 44.749 17.0225 45.1982 17.3887 45.5352C17.7549 45.8721 18.2456 46.0405 18.8608 46.0405C19.5151 46.0405 20.0156 45.8696 20.3623 45.5278C20.709 45.186 20.8823 44.6953 20.8823 44.0557C20.8823 43.4355 20.6919 42.9595 20.311 42.6274C19.9302 42.2954 19.3809 42.1245 18.6631 42.1147H17.645V41.0088Z" fill="black"/>
</svg>
